<?xml version="1.0" encoding="UTF-8"?>
<svg width="150px" height="41px" viewBox="0 0 209 41" version="1.1" xmlns="http://www.w3.org/2000/svg" xmlns:xlink="http://www.w3.org/1999/xlink">
    <!-- Generator: Sketch 59.1 (86144) - https://sketch.com -->
    <title>Logo</title>
    <desc>Created with Sketch.</desc>
    <defs>
        <linearGradient x1="50.0003324%" y1="90.0042283%" x2="50.0003324%" y2="1.37922088%" id="linearGradient-1">
            <stop stop-color="#0085CA" offset="0%"></stop>
            <stop stop-color="#10069F" offset="100%"></stop>
        </linearGradient>
        <linearGradient x1="50.0003324%" y1="1.37922088%" x2="50.0003324%" y2="90.0042283%" id="linearGradient-2">
            <stop stop-color="#10069F" offset="0%"></stop>
            <stop stop-color="#0085CA" offset="100%"></stop>
        </linearGradient>
    </defs>
    <g id="Symbols" stroke="none" stroke-width="1" fill="none" fill-rule="evenodd">
        <g id="Navigation-/-Top-menu-bar" transform="translate(-40.000000, -24.000000)">
            <g id="Logo-Copy" transform="translate(40.000000, 24.000101)">
                <path d="M130.214647,0.983403666 L139.537657,0.983403666 L139.537657,39.3563634 L130.214647,39.3563634 L130.214647,0.983403666 Z M164.557908,8.14076319 C168.707901,8.14076319 171.713535,9.28477591 173.699263,10.5466566 L174.358977,2.42659303 C172.074419,1.10439168 168.28531,0.0813669769 163.473523,0.0813669769 C153.431518,0.0813669769 142.543984,6.93712316 142.543984,20.1674568 C142.543984,33.3388565 153.371197,40.2559734 163.473523,40.2559734 C168.106081,40.2559734 171.352997,39.474578 173.518301,38.2106173 L174.299003,29.8492711 C172.194713,31.2324864 169.009505,32.1352165 164.857085,32.1352165 C157.581858,32.1352165 151.986249,27.3858304 151.986249,20.1660701 C151.985902,12.8932693 157.581164,8.14110987 164.557908,8.14110987 L164.557908,8.14076319 Z M194.761577,20.0499355 L208.172526,0.983056996 L198.00884,0.983056996 L186.219962,17.4623868 L186.219962,0.983056996 L176.900072,0.983056996 L176.900072,39.3563634 L186.220309,39.3563634 L186.220309,23.5388276 L197.768251,39.3570567 L208.591651,39.3570567 L194.761577,20.0499355 Z M116.024729,16.5014161 C115.192761,19.0242724 114.510709,21.5941197 113.982146,24.1975016 L113.862198,24.1975016 C113.260378,21.4314175 112.53653,18.5467721 111.876816,16.4404021 L106.884761,0.981670314 L98.8250181,0.981670314 L93.7743753,16.5014161 C92.9494998,19.0265973 92.266646,21.5959796 91.7290192,24.1975016 L91.6069912,24.1975016 C91.1059434,21.5868012 90.4224825,19.0144399 89.5616351,16.4993361 L84.5695797,0.981670314 L75.6088401,0.981670314 L88.4186624,39.593486 L94.3737686,39.593486 L99.9672974,22.6374843 C100.80936,20.1119895 101.651423,17.4634268 102.493485,14.0969094 L102.614473,14.0969094 C103.45619,17.4634268 104.299639,20.0509755 105.141008,22.6374843 L110.733844,39.5962594 L116.688257,39.5962594 L126.419991,10.2641201 L120.147335,3.99285043 L116.024729,16.5014161 Z M42.9243969,5.92345856 C50.823163,-1.97448619 63.628722,-1.97448619 71.5274881,5.92345856 C77.3119315,11.7078953 79.0423395,20.4072243 75.9118253,27.9649604 C72.7813111,35.5226965 65.4063761,40.450472 57.2259425,40.450472 C49.0455089,40.450472 41.6705739,35.5226965 38.5400597,27.9649604 C35.4095455,20.4072243 37.1399535,11.7078953 42.9243969,5.92345856 Z M9.18330204,0.978550279 L9.32197024,1.02569747 L9.32197024,16.1398387 L24.1771486,16.1398387 L24.1771486,0.983403666 L33.4401849,0.983403666 L33.4401849,39.3549767 L24.1771486,39.3549767 L24.1771486,24.1361409 L9.32197024,24.1361409 L9.32197024,39.3549767 L-2.84217094e-14,39.3549767 L-2.84217094e-14,0.978550279 L9.18330204,0.978550279 Z M53.6347826,20.45346 L44.1360104,20.45346 L56.9628196,33.2802692 L56.9628196,23.781497 L53.6347826,20.45346 Z M68.2850787,14.4810203 L58.9873754,23.7783769 L58.9873754,33.2771491 L68.3443594,23.9201652 L68.2850787,14.4810203 Z M53.4874476,9.06186677 L44.1224902,18.4282108 L53.6212625,18.4282108 L62.9272859,9.12114742 L53.4874476,9.06186677 Z" id="Shape" fill="#10069F" fill-rule="nonzero" shape-rendering="optimizeQuality"></path>
                <g id="Logo" stroke-width="1" fill-rule="evenodd" shape-rendering="auto">
                    <path d="M130.214647,0.983504261 L139.537657,0.983504261 L139.537657,39.356464 L130.214647,39.356464 L130.214647,0.983504261 Z M164.557908,8.14086379 C168.707901,8.14086379 171.713535,9.2848765 173.699263,10.5467572 L174.358977,2.42669363 C172.074419,1.10449227 168.28531,0.0814675719 163.473523,0.0814675719 C153.431518,0.0814675719 142.543984,6.93722375 142.543984,20.1675574 C142.543984,33.3389571 153.371197,40.256074 163.473523,40.256074 C168.106081,40.256074 171.352997,39.4746786 173.518301,38.2107179 L174.299003,29.8493717 C172.194713,31.232587 169.009505,32.1353171 164.857085,32.1353171 C157.581858,32.1353171 151.986249,27.385931 151.986249,20.1661707 C151.985902,12.8933699 157.581164,8.14121046 164.557908,8.14121046 L164.557908,8.14086379 Z M194.761577,20.0500361 L208.172526,0.983157591 L198.00884,0.983157591 L186.219962,17.4624874 L186.219962,0.983157591 L176.900072,0.983157591 L176.900072,39.356464 L186.220309,39.356464 L186.220309,23.5389282 L197.768251,39.3571573 L208.591651,39.3571573 L194.761577,20.0500361 Z M116.024729,16.5015167 C115.192761,19.024373 114.510709,21.5942203 113.982146,24.1976022 L113.862198,24.1976022 C113.260378,21.4315181 112.53653,18.5468727 111.876816,16.4405027 L106.884761,0.981770909 L98.8250181,0.981770909 L93.7743753,16.5015167 C92.9494998,19.0266979 92.266646,21.5960802 91.7290192,24.1976022 L91.6069912,24.1976022 C91.1059434,21.5869018 90.4224825,19.0145405 89.5616351,16.4994367 L84.5695797,0.981770909 L75.6088401,0.981770909 L88.4186624,39.5935866 L94.3737686,39.5935866 L99.9672974,22.6375849 C100.80936,20.1120901 101.651423,17.4635274 102.493485,14.09701 L102.614473,14.09701 C103.45619,17.4635274 104.299639,20.0510761 105.141008,22.6375849 L110.733844,39.59636 L116.688257,39.59636 L126.419991,10.2642207 L120.147335,3.99295103 L116.024729,16.5015167 Z M24.1771486,16.1399393 L9.32197024,16.1399393 L9.32197024,1.02579806 L9.18330204,0.978650874 L0,0.978650874 L0,39.3550773 L9.32197024,39.3550773 L9.32197024,24.1362415 L24.1771486,24.1362415 L24.1771486,39.3550773 L33.4401849,39.3550773 L33.4401849,0.983504261 L24.1771486,0.983504261 L24.1771486,16.1399393 Z" id="Shape" fill="url(#linearGradient-1)" fill-rule="nonzero" shape-rendering="optimizeQuality" ></path>
                    <path d="M42.9243969,5.92355915 C50.823163,-1.97438559 63.628722,-1.97438559 71.5274881,5.92355915 C77.3119315,11.7079959 79.0423395,20.4073249 75.9118253,27.965061 C72.7813111,35.5227971 65.4063761,40.4505726 57.2259425,40.4505726 C49.0455089,40.4505726 41.6705739,35.5227971 38.5400597,27.965061 C35.4095455,20.4073249 37.1399535,11.7079959 42.9243969,5.92355915 Z M53.6347826,20.4535606 L44.1360104,20.4535606 L56.9628196,33.2803698 L56.9628196,23.7815976 L53.6347826,20.4535606 Z M68.2850787,14.4811209 L58.9873754,23.7784775 L58.9873754,33.2772497 L68.3443594,23.9202658 L68.2850787,14.4811209 Z M53.4874476,9.06196736 L44.1224902,18.4283114 L53.6212625,18.4283114 L62.9272859,9.12124801 L53.4874476,9.06196736 Z" id="Combined-Shape" fill="url(#linearGradient-2)" fill-rule="nonzero" ></path>
                </g>
            </g>
        </g>
    </g>
</svg>


